<svg id="Layer_1" height="512" viewBox="0 0 512 512" width="512" xmlns="http://www.w3.org/2000/svg" data-name="Layer 1"><path d="m194.52 353.97a1.461 1.461 0 0 1 -.83 2.67c-16.11.04-68.03.23-100.56 1.45-11.17.42-18.98 2.95-24.43 6.35 0 0-18.33-.73-46.61 10.8-4.41 1.79-9.33-.49-10.26-5.14-4.26-21.3 2.76-66.76 149.92-49.05 9 15.53 25.2 27.75 32.77 32.92z" fill="#86909d"/><path d="m124.52 168.99a25.633 25.633 0 0 1 5.75-5.59c16-11.53 37.73-5.45 47.09 10.79a33.688 33.688 0 0 1 3.08 7.15c12.15 40.4-13.52 102.25 48.38 124.59 48.66 17.56 56.14 44.22 54.75 62.04a20.242 20.242 0 0 1 -20.19 18.67h-202.47a4.374 4.374 0 0 1 -4.28-5.27 25.887 25.887 0 0 1 12.07-16.93c5.45-3.4 13.26-5.93 24.43-6.35 32.53-1.22 84.45-1.41 100.56-1.45a1.461 1.461 0 0 0 .83-2.67c-7.57-5.17-23.77-17.39-32.77-32.92a48.314 48.314 0 0 1 -5.42-13.33c-6.31-27.52-34.92-25.25-42.85-24.06a1.466 1.466 0 0 1 -1.67-1.68c1.19-7.68 3.32-34.25-25.33-31.76-27.63 2.39-17.44 36.67-12.55 50.2a3.07 3.07 0 0 1 -4.09 3.86c-14.53-6.11-47.3-26.06-35.39-78.85 14.87-65.87 90.07-56.44 90.07-56.44z" fill="#f3ce7d"/><path d="m323.74 417.81c-21.74 30.68-59.9 21.5-75.91 15.84a3.432 3.432 0 0 1 -.68-6.16c19.39-11.79 16.23-40.85 16.23-40.85a20.242 20.242 0 0 0 20.19-18.67c1.39-17.82-6.09-44.48-54.75-62.04-61.9-22.34-36.23-84.19-48.38-124.59a33.688 33.688 0 0 0 -3.08-7.15s8.58-31.5 49.9-49.03c17.33-7.35 31.97-20.01 40.82-36.57a95.634 95.634 0 0 0 11.72-44.12 8.269 8.269 0 0 1 9.64-8.11c18.63 3.11 55.29 17.14 38.25 79.83 19.2-17.67 43.78-45.86 49.78-74.21a8.254 8.254 0 0 1 13.27-4.63 143.357 143.357 0 0 1 11.09 9.94c9.19 9.16 18.65 21.3 23.16 35.46a53.942 53.942 0 0 1 -2.17 39.42 99.792 99.792 0 0 1 -8.34 15.15s34.74-4.12 50.53-42.51a4.145 4.145 0 0 1 7.47-.46 129.3 129.3 0 0 1 8.49 18.9c3.8 10.69 6.75 23.71 5.98 37.36-1.07 18.91-9.27 38.99-32.25 55.7a106.967 106.967 0 0 1 -32.95 15.96l-10.76 3.16s36.21 27.17 81.46 23.42a7.818 7.818 0 0 1 8.47 7.48 115.077 115.077 0 0 1 -.67 17.31 95.785 95.785 0 0 1 -5 21.79 70.869 70.869 0 0 1 -13.04 22.58h-.01c-11.58 13.3-30.09 23.46-59.49 24.5v.09s6.78 33.17 68.27 40.01a2.1 2.1 0 0 1 1.49 3.29 123.029 123.029 0 0 1 -24.48 26.46 83.516 83.516 0 0 1 -35.35 16.69 87.931 87.931 0 0 1 -35.37-.38c-22.65 43.31-56.38 48.72-71.48 47.73a4.745 4.745 0 0 1 -3.74-7.16c13.49-22.85 1.69-51.43 1.69-51.43z" fill="#af786b"/><path d="m281.54 232.08a123.892 123.892 0 0 0 -36.02-.41 128.053 128.053 0 0 0 -20.79 4.55c-3.24 1-5.96 1.99-8.09 2.83a4.383 4.383 0 0 1 -5.99-3.86c-.75-14.83 10.15-51.18 53.12-51.18 40.85 0 51.19 37.12 49.62 51.65a4.379 4.379 0 0 1 -5.96 3.58q-2.31-.93-4.61-1.74a119.89 119.89 0 0 0 -21.28-5.42z" fill="#c79a83"/><path d="m281.54 232.08-36.02-.41a128.053 128.053 0 0 0 -20.79 4.55c0 21.13 15.37 43.43 39.58 43.43 22.95 0 38.51-21.02 38.51-42.15a119.89 119.89 0 0 0 -21.28-5.42z" fill="#c7cddd"/><path d="m281.65 232.8a18.246 18.246 0 0 1 -1.57 10.9 18.6 18.6 0 0 1 -33.19 0 18.231 18.231 0 0 1 -1.54-10.97l.17-1.06a123.892 123.892 0 0 1 36.02.41z" fill="#6d7486"/><path d="m124.52 168.99s-75.2-9.43-90.07 56.44c-11.91 52.79 20.86 72.74 35.39 78.85a3.07 3.07 0 0 0 4.09-3.86c-2.129-5.891-5.261-15.716-5.84-25.13-5.865-11.93-8.549-28.1-3.64-49.86 8.867-39.279 39.185-51.78 62.22-55.474-1.153-.871-1.929-1.268-2.15-.966z" fill="#c4a569"/><path d="m277.83 433.65a3.432 3.432 0 0 1 -.68-6.16c19.39-11.79 16.23-40.85 16.23-40.85a20.242 20.242 0 0 0 20.19-18.67c1.39-17.82-6.09-44.48-54.75-62.04-61.9-22.34-36.23-84.19-48.38-124.59a33.688 33.688 0 0 0 -3.08-7.15s8.58-31.5 49.9-49.03c17.33-7.35 31.97-20.01 40.82-36.57a95.634 95.634 0 0 0 11.72-44.12 8.517 8.517 0 0 1 .06-.924 59.975 59.975 0 0 0 -20.42-7.186 8.269 8.269 0 0 0 -9.64 8.11 95.634 95.634 0 0 1 -11.72 44.12c-8.85 16.56-23.49 29.22-40.82 36.57-41.32 17.53-49.9 49.03-49.9 49.03a33.688 33.688 0 0 1 3.08 7.15c12.15 40.4-13.52 102.25 48.38 124.59 48.66 17.56 56.14 44.22 54.75 62.04a20.242 20.242 0 0 1 -20.19 18.67s3.16 29.06-16.23 40.85a3.432 3.432 0 0 0 .68 6.16c9.886 3.5 28.219 8.328 45.915 4.293a107.665 107.665 0 0 1 -15.915-4.293z" fill="#89645d"/><g fill="#7f605c"><path d="m301.441 42.552c.027.462 2.334 46.407-23.209 65.93a6 6 0 1 0 7.287 9.534c25.906-19.8 28.027-59.245 28-72.075a51.092 51.092 0 0 0 -11.555-6.194 5.978 5.978 0 0 0 -.523 2.805z"/><path d="m332.093 149.307a5.969 5.969 0 0 0 2.673-.632c25.838-12.883 46.65-34.328 60.187-62.017a151.931 151.931 0 0 0 11.962-33.994c-1.682-1.888-3.388-3.683-5.085-5.374-1.468-1.464-2.918-2.825-4.349-4.132a5.979 5.979 0 0 0 -1.592 3.265c-.092.629-9.852 63.278-66.477 91.512a6 6 0 0 0 2.681 11.372z"/><path d="m342.2 155.017a6 6 0 1 0 4.641 11.066c46.663-19.572 71.757-58.624 80.283-74.264a58.16 58.16 0 0 0 -2.131-9.069c-.609-1.912-1.315-3.784-2.092-5.621a5.986 5.986 0 0 0 -3.391 3.171c-.232.522-23.904 52.315-77.31 74.717z"/><path d="m389.731 181.911a6 6 0 0 0 7.5 3.959c53.062-16.417 78.227-51.279 86.234-64.707-.762-2.75-1.606-5.4-2.5-7.913-.692-1.949-1.411-3.82-2.141-5.6a5.97 5.97 0 0 0 -3.3 3.054c-.211.448-21.762 45.116-81.845 63.705a6 6 0 0 0 -3.948 7.502z"/><path d="m482.3 146.813c-.375.49-38.192 49.127-98.332 57.062a6 6 0 0 0 .777 11.949 5.912 5.912 0 0 0 .793-.053c51.005-6.729 86.248-39.345 99.971-54.27a72.322 72.322 0 0 0 1.44-10.891c.117-2.067.138-4.116.094-6.149a5.987 5.987 0 0 0 -4.743 2.352z"/><path d="m481.308 312.081c-58.644 8.9-94.755-9.409-95.113-9.6a6 6 0 0 0 -5.57 10.629c1.28.672 26.189 13.445 68.6 13.445a222.662 222.662 0 0 0 25.823-1.542c2.637-2.206 5.015-5.017 7.155-7.017h.01c1.33-2 2.553-3.1 3.706-4.7a6 6 0 0 0 -4.611-1.215z"/><path d="m493.729 289.626c-32.555 8.582-95.91-13.916-96.546-14.146a6 6 0 0 0 -4.056 11.294c2.271.817 47.165 16.764 83.054 16.764a90.028 90.028 0 0 0 16.249-1.345q1.584-3.361 2.82-6.763 1.039-2.859 1.847-5.707a5.982 5.982 0 0 0 -3.368-.097z"/><path d="m500.1 267.64c-59.394 1.538-90.737-19.466-91.046-19.678a6 6 0 0 0 -6.831 9.866c1.331.925 32.23 21.9 91.53 21.9 1.847 0 3.729-.025 5.631-.067.355-2.055.646-4.069.868-6.016.239-2.071.4-4.061.521-5.971a6.245 6.245 0 0 0 -.673-.034z"/><path d="m433.818 423.169c-9.774-1.959-22.226-9.926-36.012-23.041a215.452 215.452 0 0 1 -18.6-20.147 6 6 0 0 0 -9.434 7.417c1.15 1.463 24.737 31.194 49.441 43.218a81.428 81.428 0 0 0 13.423-1.566q2.9-.585 5.824-1.415a5.994 5.994 0 0 0 -4.642-4.466z"/><path d="m467.992 406.355c-33.38 0-56.8-41.149-57.106-41.7a6 6 0 0 0 -10.487 5.831c1.016 1.829 23.805 42.1 59.9 47.311a93.569 93.569 0 0 0 7.689-5.438q2.313-1.817 4.608-3.847a5.987 5.987 0 0 0 -4.604-2.157z"/><path d="m306.2 340.466a6 6 0 0 0 -5.484 6.474c.06.735 5.567 73.565-38.478 85.2a5.994 5.994 0 0 0 -4.328 4.531 93.17 93.17 0 0 0 18.552 2.738c16.466-8.652 27.836-25.985 33.169-50.857a161.928 161.928 0 0 0 3.043-42.606 6 6 0 0 0 -6.474-5.48z"/><path d="m355.06 423.052a6 6 0 0 0 -6 6c0 21.7-20.826 36.278-26.962 40.1-.017.029-.031.058-.048.087a4.745 4.745 0 0 0 3.74 7.16 54.018 54.018 0 0 0 7.109-.036 85.643 85.643 0 0 0 10.493-8.866c11.559-11.526 17.668-24.82 17.668-38.446a6 6 0 0 0 -6-5.999z"/></g></svg>