<?xml version="1.0" encoding="iso-8859-1"?>
<!-- Generator: Adobe Illustrator 19.0.0, SVG Export Plug-In . SVG Version: 6.00 Build 0)  -->
<svg xmlns="http://www.w3.org/2000/svg" xmlns:xlink="http://www.w3.org/1999/xlink" version="1.1" id="Layer_1" x="0px" y="0px" viewBox="0 0 512.125 512.125" style="enable-background:new 0 0 512.125 512.125;" xml:space="preserve" width="512" height="512">
<g>
	<path style="fill:#895D3C;" d="M512.062,0l-24,120.7c-12.301,61.8-69.101,60.099-72.1,61.3c0.899,2.1,1.8,4.499,2.699,6.599   c41.7,82.2,45.601,203.401,8.101,259.2c-27.599,41.7-75.901,66.301-125.7,64.2h-7.8l-37.2-30l-36.899,30h-7.5   c-51.301,2.1-99.001-23.401-126.601-64.501c-37.2-55.8-32.699-176.4,8.701-259.2c0.899-2.098,1.5-4.199,2.399-6.299   c-2.999-1.201-59.799,0.5-72.1-61.3L0.062,0h40.201c51.899,0,100,27.299,126.4,70.499l25.199-50.7L223.361,51l32.701-51l32.701,51   l31.5-31.201l25.199,50.7c26.4-43.2,73.5-70.499,125.4-70.499H512.062z"/>
	<path style="fill:#714C2F;" d="M512.062,0l-24,120.7c-12.301,61.8-69.101,60.099-72.1,61.3c0.899,2.1,1.8,4.499,2.699,6.599   c41.7,82.2,45.601,203.401,8.101,259.2c-27.599,41.7-75.901,66.301-125.7,64.2h-7.8l-37.2-30V0l32.701,51l31.5-31.201l25.199,50.7   c26.4-43.2,73.5-70.499,125.4-70.499H512.062z"/>
	<path style="fill:#D3D3D8;" d="M484.582,248.68c-26.03,39.067-66.493,66.738-112.094,77.944l-1.216,93.457   c79.702-12.231,140.79-82.339,140.79-163.081v-49.556L484.582,248.68z"/>
	<path style="fill:#ECECF1;" d="M139.636,326.624c-45.601-11.206-86.063-38.877-112.094-77.944l-27.48-41.235V257   c0,80.742,61.088,150.85,140.79,163.081L139.636,326.624z"/>
	<path d="M219.485,512h73.154c0.234,0,0.439-0.11,0.672-0.114l-74.282,0.037C219.188,511.925,219.326,512,219.485,512z"/>
	<rect x="331.062" y="242" style="fill:#24292D;" width="30" height="30"/>
	<rect x="151.062" y="242" style="fill:#24292D;" width="30" height="30"/>
	<path style="fill:#714C2F;" d="M176.682,449.466c-32.754-8.745-55.62-38.54-55.62-72.466v-75h30v75   c0,20.361,13.711,38.247,33.354,43.491L176.682,449.466z"/>
	<path style="fill:#523522;" d="M335.442,449.466l-7.734-28.975c19.644-5.244,33.354-23.13,33.354-43.491v-75h30v75   C391.062,410.926,368.196,440.721,335.442,449.466z"/>
	<path style="fill:#714C2F;" d="M331.062,317h-30c0-3.6-15.901-15-45-15s-45,11.4-45,15h-30c0-25.501,32.1-45,75-45   S331.062,291.499,331.062,317z"/>
	<path style="fill:#523522;" d="M256.062,302v-30c42.9,0,75,19.499,75,45h-30C301.062,313.4,285.161,302,256.062,302z"/>
	<path style="fill:#FED2A4;" d="M351.162,417.8l-15,60c-4.799,20.099-22.5,33.9-42.9,34.2h-74.099   c-20.7-0.3-38.401-14.101-43.2-34.2l-15-60c-3.6-13.5-0.601-27.599,8.099-38.401c8.401-11.1,21.601-17.399,35.402-17.399h103.198   c13.801,0,27.001,6.299,35.402,17.399C351.762,390.2,354.762,404.299,351.162,417.8z"/>
	<path style="fill:#FFBD86;" d="M351.162,417.8l-15,60c-4.799,20.099-22.5,33.9-42.9,34.2h-37.2V362h51.599   c13.801,0,27.001,6.299,35.402,17.399C351.762,390.2,354.762,404.299,351.162,417.8z"/>
	<rect x="211.062" y="422" style="fill:#714C2F;" width="30" height="30"/>
	<rect x="271.062" y="422" style="fill:#523522;" width="30" height="30"/>
</g>















</svg>
