<svg id="Capa_1" enable-background="new 0 0 512 512" height="512" viewBox="0 0 512 512" width="512" xmlns="http://www.w3.org/2000/svg"><g><path d="m287.824 512c-6.592 0-13.184-2.514-18.214-7.544-12.505-12.505-19.392-29.131-19.392-46.815 0-17.685 6.887-34.311 19.392-46.815l69.692-69.691c15.926-15.927 15.926-41.841 0-57.768l-9.152-9.152c-10.059-10.059-10.059-26.368 0-36.427l9.152-9.152c15.927-15.926 15.926-41.841 0-57.768l-69.692-69.691c-12.505-12.504-19.392-29.13-19.392-46.815 0-17.684 6.887-34.31 19.392-46.815 10.061-10.058 26.368-10.059 36.427.001 10.059 10.059 10.059 26.368 0 36.427-2.775 2.774-4.303 6.464-4.303 10.387 0 3.924 1.528 7.613 4.302 10.387l69.693 69.692c33.128 33.129 35.779 85.371 7.958 121.56 27.821 36.19 25.17 88.431-7.958 121.56l-69.692 69.692c-2.775 2.775-4.303 6.464-4.303 10.388s1.528 7.613 4.303 10.387c10.059 10.059 10.059 26.368 0 36.427-5.028 5.03-11.62 7.545-18.213 7.545z" fill="#9d6b6b"/><path d="m365.341 283.363c15.926 15.926 15.926 41.846 0 57.772l-69.691 69.691c-12.506 12.506-19.398 29.133-19.398 46.811 0 17.688 6.892 34.315 19.398 46.822 1.586 1.586 3.338 2.936 5.192 4.018-4.008 2.349-8.52 3.523-13.022 3.523-6.593 0-13.176-2.514-18.213-7.541-12.496-12.506-19.388-29.134-19.388-46.822 0-17.678 6.892-34.305 19.388-46.811l69.691-69.691c15.926-15.926 15.926-41.846 0-57.772l-9.148-9.148c-10.055-10.055-10.055-26.373 0-36.427l9.148-9.148c15.926-15.926 15.926-41.846 0-57.772l-69.691-69.691c-12.496-12.506-19.388-29.133-19.388-46.811 0-17.688 6.892-34.315 19.388-46.822 8.468-8.468 21.366-9.807 31.235-4.018-1.854 1.081-3.606 2.431-5.192 4.018-12.506 12.506-19.398 29.134-19.398 46.822 0 17.678 6.892 34.305 19.398 46.811l69.691 69.691c15.926 15.926 15.926 41.846 0 57.772l-9.158 9.148c-10.054 10.055-10.054 26.373 0 36.427z" fill="#8b5e5e"/><path d="m123.705 255.894c-1.449 0-2.913-.407-4.216-1.258-3.573-2.333-4.579-7.12-2.246-10.693l126.51-193.801c1.427-2.186 3.86-3.503 6.47-3.503h51.509c4.268 0 7.726 3.459 7.726 7.726s-3.459 7.726-7.726 7.726h-47.326l-124.224 190.299c-1.482 2.27-3.955 3.504-6.477 3.504z" fill="#ede6e3"/><path d="m301.731 465.364h-51.509c-2.61 0-5.043-1.317-6.47-3.503l-128.346-196.614c-2.333-3.573-1.327-8.361 2.246-10.693 3.571-2.332 8.36-1.327 10.693 2.246l126.059 193.111h47.326c4.268 0 7.726 3.459 7.726 7.726.002 4.268-3.457 7.727-7.725 7.727z" fill="#ede6e3"/><g><path d="m18.479 221.648 10.692 19.964 35.975 18.991 44.198-18.991-9.31-17.384c-6.292-11.748-18.537-19.081-31.864-19.081h-39.81c-8.47 0-13.88 9.034-9.881 16.501z" fill="#d8cec9"/><path d="m18.479 290.356 10.692-19.964 35.975-18.991 44.198 18.991-9.31 17.384c-6.292 11.748-18.537 19.081-31.864 19.081h-39.81c-8.47 0-13.88-9.034-9.881-16.501z" fill="#ede6e3"/><path d="m226.279 44.504h28.78v422.996h-28.78z" fill="#365e7d" transform="matrix(0 -1 1 0 -15.333 496.671)"/><path d="m233.719 51.944h13.9v422.996h-13.9z" fill="#2b4d66" transform="matrix(0 -1 1 0 -22.772 504.111)"/><path d="m489.659 246.991-38.145-22.023c-6.937-4.005-15.608 1.001-15.608 9.011v44.046c0 8.01 8.671 13.016 15.608 9.011l38.145-22.023c6.937-4.005 6.937-14.017 0-18.022z" fill="#ffc250"/><path d="m494.864 255.997c0 3.502-1.741 7.005-5.202 9.014l-38.147 22.025c-6.933 3.997-15.607-1.01-15.607-9.014v-16.668c0 1.947 8.674 3.162 15.607 2.184l38.147-5.347c3.461-.484 5.202-1.339 5.202-2.194z" fill="#e7a52e"/></g></g></svg>