<svg id="Capa_1" enable-background="new 0 0 512 512" height="512" viewBox="0 0 512 512" width="512" xmlns="http://www.w3.org/2000/svg"><g><path d="m74.386 437.234h33.227v50.614h-33.227z" fill="#2b4d66"/><path d="m450.244 512h-262.349c13.432-22.712 32.59-41.624 55.488-54.757h151.374c22.897 13.133 42.056 32.045 55.487 54.757z" fill="#ede6e3"/><path d="m394.754 457.243-2.802 2.802c-36.267 30.983-87.347 35.196-127.642 12.628-6.345-3.533-12.422-7.756-18.128-12.628l-2.802-2.802c13.401-7.694 28.089-13.411 43.663-16.738v-55.508h64.058v55.508c15.564 3.327 30.252 9.044 43.653 16.738z" fill="#ffddce"/><path d="m301.132 384.994v55.508c-13.823 5.284-26.389 16.532-36.824 32.168-6.345-3.533-12.422-7.756-18.129-12.628l-2.802-2.802c13.401-7.694 28.089-13.411 43.663-16.738v-55.508z" fill="#ffcbbe"/><path d="m366.355 110.4h-94.563c-41.176 0-74.557 33.38-74.557 74.557v90.022c0 62.006 50.266 112.271 112.271 112.271h19.134c62.006 0 112.271-50.266 112.271-112.271v-90.022c.001-41.177-33.379-74.557-74.556-74.557z" fill="#ffddce"/><g fill="#ffcbbe"><path d="m450.72 316.559v-127.01c0-33.212-10.714-64.371-29.198-89.772l-42.816 72.988c11.318-2.005 21.7 6.699 21.7 18.193v139.989"/><path d="m351.101 384.997v22.846c-7.262 1.473-14.771 2.245-22.465 2.245h-19.128c-7.694 0-15.203-.773-22.465-2.245v-22.846z"/><path d="m351.66 384.882c-7.423 1.543-15.126 2.361-23.015 2.361h-19.132c-62.004 0-112.278-50.264-112.278-112.267v-90.019c0-41.184 33.388-74.562 74.562-74.562h65.182c-41.184 0-74.562 33.378-74.562 74.562v90.019c.001 54.114 38.286 99.284 89.243 109.906z"/></g><g fill="#2b4d66"><path d="m261.205 230.524c-7.491 0-13.585 8.35-13.585 18.613s6.094 18.613 13.585 18.613 13.586-8.35 13.586-18.613-6.095-18.613-13.586-18.613z"/><path d="m376.942 230.524c-7.491 0-13.586 8.35-13.586 18.613s6.095 18.613 13.586 18.613 13.585-8.35 13.585-18.613-6.094-18.613-13.585-18.613z"/></g><path d="m278.356 228.129c-17.255 0-31.292-14.037-31.292-31.292 0-4.267 3.459-7.726 7.726-7.726 4.268 0 7.726 3.459 7.726 7.726 0 8.734 7.106 15.839 15.839 15.839 4.268 0 7.726 3.459 7.726 7.726s-3.458 7.727-7.725 7.727z" fill="#eaac9d"/><path d="m359.791 228.129c-4.268 0-7.726-3.459-7.726-7.726s3.459-7.726 7.726-7.726c8.733 0 15.839-7.105 15.839-15.839 0-4.267 3.459-7.726 7.726-7.726s7.726 3.459 7.726 7.726c.001 17.253-14.036 31.291-31.291 31.291z" fill="#eaac9d"/><path d="m319.074 313.904c-14.323 0-27.181-9.578-31.269-23.291-1.219-4.089 1.108-8.393 5.197-9.612 4.093-1.22 8.392 1.108 9.612 5.197 2.151 7.214 8.919 12.253 16.46 12.253 7.548 0 14.316-5.035 16.457-12.245 1.214-4.091 5.517-6.422 9.606-5.207 4.091 1.215 6.423 5.515 5.207 9.606-4.073 13.718-16.932 23.299-31.27 23.299z" fill="#eaac9d"/><path d="m319.074 186.732 78.816-13.966c11.318-2.005 21.7 6.699 21.7 18.193v72.897c0 8.122-5.809 15.082-13.801 16.534l-26.517 4.818c-9.402 1.708-16.237 9.897-16.237 19.453v60.15c0 17.515 18.568 28.796 34.112 20.724l25.409-13.193c29.091-15.105 47.348-45.156 47.348-77.935v-104.858c0-71.013-48.984-132.641-118.166-148.666l-32.664-7.566-32.664 7.566c-69.182 16.025-118.166 77.653-118.166 148.666v104.858c0 32.779 18.257 62.83 47.348 77.935l25.408 13.193c15.545 8.071 34.112-3.209 34.112-20.724v-60.15c0-9.556-6.835-17.745-16.237-19.453l-26.517-4.818c-7.991-1.452-13.801-8.412-13.801-16.534v-94.936z" fill="#ffc250"/><path d="m286.409 40.885 32.662-7.571-15.203 7.571c-32.209 16.027-55.014 62.203-55.014 133.213l-8.714-1.49c-11.285-1.929-21.59 6.764-21.59 18.212v87.065l40.326 7.324c9.394 1.71 16.233 9.899 16.233 19.457v60.144c0 17.521-18.571 28.8-34.115 20.724l-25.411-13.195c-29.088-15.1-47.34-45.146-47.34-77.932v-104.858c0-71.01 48.978-132.637 118.166-148.664z" fill="#e7a52e"/><path d="m332.843 106.721c-9.166-.693-18.372-.693-27.538 0-17.009 1.286-32.391-10.114-36.373-26.7-3.773-15.717-7.547-31.434-11.32-47.15-3.369-14.034 6.089-27.881 20.375-29.934 27.251-3.916 54.923-3.916 82.174 0 14.286 2.053 23.744 15.9 20.375 29.934-3.773 15.717-7.547 31.434-11.32 47.15-3.982 16.586-19.365 27.985-36.373 26.7z" fill="#365e7d"/><path d="m325.069 106.302c-6.592-.227-13.184-.082-19.766.422-17.006 1.288-32.384-10.115-36.37-26.698-3.77-15.718-7.55-31.437-11.32-47.155-3.368-14.029 6.088-27.883 20.374-29.933 18.314-2.627 36.824-3.492 55.261-2.585-9.002.443-17.984 1.298-26.925 2.585-14.287 2.05-23.742 15.904-20.374 29.933 3.78 15.718 7.55 31.437 11.32 47.155 3.295 13.73 14.42 23.917 27.8 26.276z" fill="#2b4d66"/><path d="m264.313 472.673c-7.416 11.093-13.761 24.391-18.705 39.327h-57.713c13.432-22.712 32.59-41.624 55.488-54.757l2.802 2.802c5.706 4.872 11.783 9.095 18.128 12.628z" fill="#d8cec9"/><path d="m319.07 494.617c-20.577 0-41.148-5.25-59.501-15.753-3.703-2.119-4.987-6.84-2.868-10.544 2.121-3.704 6.84-4.987 10.544-2.868 31.965 18.293 71.683 18.295 103.65 0 3.701-2.118 8.424-.836 10.544 2.868 2.119 3.703.835 8.424-2.868 10.544-18.349 10.501-38.928 15.753-59.501 15.753z" fill="#e04b66"/><g><g><circle cx="396.075" cy="460.039" fill="#eca900" r="24.547"/><path d="m406.301 482.37c-3.111 1.432-6.572 2.225-10.218 2.225-13.566 0-24.556-10.99-24.556-24.556 0-13.555 10.99-24.546 24.556-24.546 3.646 0 7.107.793 10.218 2.225-8.457 3.863-14.338 12.412-14.338 22.321 0 9.919 5.882 18.458 14.338 22.331z" fill="#e7a52e"/></g><g><circle cx="242.064" cy="460.039" fill="#eca900" r="24.547"/><path d="m252.291 482.37c-3.111 1.432-6.572 2.225-10.218 2.225-13.566 0-24.556-10.99-24.556-24.556 0-13.555 10.99-24.546 24.556-24.546 3.646 0 7.107.793 10.218 2.225-8.457 3.863-14.338 12.412-14.338 22.321 0 9.919 5.882 18.458 14.338 22.331z" fill="#e7a52e"/></g></g><path d="m93.595 446.852h-5.26c-12.757 0-23.099 10.342-23.099 23.099v18.95c0 12.757 10.342 23.099 23.099 23.099h5.26c12.757 0 23.099-10.342 23.099-23.099v-18.95c0-12.757-10.342-23.099-23.099-23.099z" fill="#ffddce"/><path d="m101.752 510.511c-2.534.958-5.284 1.483-8.158 1.483h-5.264c-12.752 0-23.093-10.341-23.093-23.093v-18.953c0-12.752 10.341-23.093 23.093-23.093h5.263c2.874 0 5.624.525 8.158 1.483-8.724 3.296-14.935 11.732-14.935 21.61v18.953c0 9.878 6.211 18.314 14.936 21.61z" fill="#ffcbbe"/><path d="m123.394 273.496v140.775l-34.153 32.578-30.852-32.578v-140.775l32.497-29.799z" fill="#ede6e3"/><path d="m123.546 414.276h-65.162c-8.996 0-16.288 7.293-16.288 16.288 0 8.996 7.293 16.288 16.288 16.288h65.162c8.996 0 16.288-7.293 16.288-16.288.001-8.996-7.292-16.288-16.288-16.288z" fill="#ffc250"/><path d="m77.725 442.08c2.946 2.946 7.025 4.769 11.516 4.769h-30.85c-4.501 0-8.58-1.823-11.526-4.769s-4.769-7.025-4.769-11.516c0-8.992 7.293-16.285 16.295-16.285h30.849c-8.992 0-16.285 7.293-16.285 16.285.001 4.491 1.824 8.57 4.77 11.516z" fill="#e7a52e"/><path d="m90.886 243.697v170.574h-32.497v-140.775z" fill="#d8cec9"/></g></svg>