<svg id="Capa_1" enable-background="new 0 0 512 512" height="512" viewBox="0 0 512 512" width="512" xmlns="http://www.w3.org/2000/svg">
<g>
<path d="m387.19 512h-262.387c13.434-22.715 32.595-41.63 55.496-54.764h151.395c22.901 13.134 42.062 32.049 55.496 54.764z" fill="#ede6e3"/>
<path d="m201.232 472.668c-7.417 11.095-13.763 24.395-18.708 39.332h-57.721c13.434-22.715 32.595-41.63 55.496-54.764l2.802 2.802c5.707 4.872 11.785 9.096 18.131 12.63z" fill="#d8cec9"/>
<path d="m331.689 457.233-2.802 2.802c-36.273 30.988-87.359 35.201-127.66 12.63-6.346-3.534-12.424-7.757-18.131-12.63l-2.802-2.802c13.403-7.695 28.093-13.413 43.669-16.74v-55.516h64.067v55.516c15.566 3.327 30.256 9.044 43.659 16.74z" fill="#ffddce"/>
<path d="m238.056 384.976v55.516c-13.825 5.285-26.393 16.534-36.829 32.173-6.346-3.534-12.424-7.757-18.131-12.63l-2.802-2.802c13.403-7.695 28.093-13.413 43.669-16.74v-55.516h14.093z" fill="#ffcbbe"/>
<path class="hair" d="m321.079 0c-25.323 0-48.283 10.105-65.079 26.497-16.796-16.392-39.756-26.497-65.079-26.497-51.468 0-93.192 41.723-93.192 93.192v200.848c0 51.468 41.723 93.192 93.192 93.192 25.323 0 48.283-10.105 65.079-26.497 16.796 16.392 39.756 26.497 65.079 26.497 51.468 0 93.192-41.723 93.192-93.192v-200.848c0-51.469-41.724-93.192-93.192-93.192z" fill="#9d6b6b"/>
<path class="hair darker" d="m234.764 376.286c-2.627 1.411-5.336 2.689-8.108 3.843-11.002 4.584-23.076 7.108-35.737 7.108-51.468 0-93.19-41.733-93.19-93.2v-200.845c0-25.734 10.436-49.026 27.289-65.901 16.874-16.854 40.167-27.289 65.901-27.289 15.854 0 30.782 3.966 43.855 10.951-8.149 4.337-15.576 9.869-22.046 16.339-16.874 16.874-27.3 40.167-27.3 65.901v200.844c.001 35.612 19.976 66.559 49.336 82.249z" fill="#8b5e5e"/>
<g fill="#ffcbbe">
<circle cx="113.603" cy="271.659" r="41.018"/>
<circle cx="398.397" cy="271.659" r="41.018"/>
</g>
<path d="m139.303 282.672c-2.714 0-5.347-1.432-6.76-3.973-2.394-4.305-6.473-6.731-12.47-7.417-5.256-.601-9.85.458-9.895.469-4.14.973-8.307-1.576-9.301-5.711s1.522-8.291 5.652-9.305c.694-.171 7.005-1.643 14.719-.868 11.28 1.133 19.855 6.431 24.8 15.322 2.074 3.729.732 8.434-2.997 10.508-1.189.66-2.478.974-3.748.975z" fill="#eaac9d"/>
<path d="m372.697 282.672c-1.271 0-2.559-.314-3.749-.976-3.729-2.074-5.071-6.778-2.997-10.508 4.945-8.891 13.52-14.189 24.8-15.322 7.714-.776 14.024.697 14.719.868 4.144 1.017 6.679 5.201 5.662 9.345-1.014 4.133-5.18 6.667-9.313 5.67-.138-.032-4.691-1.063-9.892-.468-5.997.686-10.076 3.112-12.47 7.417-1.413 2.541-4.046 3.973-6.76 3.974z" fill="#eaac9d"/>
<path d="m377.856 161.989-119.031-51.648-124.68 51.648v112.954c0 62.015 50.273 112.288 112.287 112.288h19.136c62.015 0 112.288-50.273 112.288-112.288z" fill="#ffddce"/>
<path d="m294.368 383.494c-9.189 2.442-18.842 3.74-28.804 3.74h-19.13c-62.017 0-112.29-50.273-112.29-112.29v-112.958l76.738-51.644v164.602c0 52.055 35.428 95.837 83.486 108.55z" fill="#ffcbbe"/>
<g fill="#2b4d66">
<path d="m198.124 230.484c-7.492 0-13.588 8.351-13.588 18.616s6.096 18.615 13.588 18.615 13.587-8.351 13.587-18.615c0-10.265-6.096-18.616-13.587-18.616z"/>
<path d="m313.877 230.484c-7.492 0-13.587 8.351-13.587 18.616s6.095 18.615 13.587 18.615 13.588-8.351 13.588-18.615c-.001-10.265-6.097-18.616-13.588-18.616z"/>
</g>
<path d="m215.592 211.151c-1.977 0-3.955-.754-5.463-2.263-6.177-6.177-16.227-6.178-22.405 0-3.017 3.018-7.909 3.018-10.927 0-3.018-3.017-3.018-7.909 0-10.927 12.203-12.202 32.056-12.202 44.258 0 3.018 3.017 3.018 7.909 0 10.927-1.508 1.509-3.486 2.263-5.463 2.263z" fill="#eaac9d"/>
<path d="m297.579 211.151c-1.977 0-3.955-.754-5.463-2.263-3.018-3.017-3.018-7.909 0-10.927 5.911-5.911 13.77-9.166 22.129-9.166 8.36 0 16.218 3.255 22.129 9.166 3.018 3.017 3.017 7.909 0 10.927-3.017 3.017-7.909 3.017-10.927 0-2.992-2.992-6.97-4.64-11.202-4.64-4.231 0-8.21 1.648-11.202 4.64-1.51 1.509-3.487 2.263-5.464 2.263z" fill="#eaac9d"/>
<path d="m256 316.688c-14.323 0-27.183-9.578-31.272-23.293-1.219-4.089 1.108-8.393 5.197-9.612 4.088-1.22 8.393 1.107 9.612 5.197 2.151 7.216 8.921 12.256 16.463 12.256 7.551 0 14.32-5.036 16.461-12.247 1.215-4.091 5.515-6.422 9.606-5.208 4.091 1.215 6.422 5.515 5.208 9.606-4.075 13.719-16.935 23.301-31.275 23.301z" fill="#eaa598"/>
<path d="m377.856 110.343v51.643c-62.347-20.253-128.474-24.57-192.428-12.929-17.297 3.142-34.429 7.448-51.282 12.929v-51.643c16.854-5.481 33.986-9.787 51.282-12.929 63.954-11.641 130.082-7.325 192.428 12.929z" fill="#eca900"/>
<path d="m185.429 97.414v51.643c-17.297 3.142-34.429 7.448-51.282 12.929v-51.643c16.853-5.481 33.985-9.787 51.282-12.929z" fill="#e7a52e"/>
<path d="m255.996 494.613c-20.577 0-41.155-5.252-59.508-15.755-3.704-2.119-4.988-6.84-2.868-10.544 2.119-3.704 6.84-4.988 10.543-2.868 31.971 18.297 71.694 18.298 103.667 0 3.704-2.118 8.424-.836 10.543 2.868 2.12 3.704.836 8.424-2.868 10.544-18.354 10.504-38.931 15.755-59.509 15.755z" fill="#eca900"/>
<path class="hair" d="m350.305 76.002v36.049c0 10.217-8.282 18.499-18.499 18.499-10.131 0-18.349-8.147-18.486-18.245-3.276 2.944-7.595 4.75-12.346 4.75-10.217 0-18.499-8.282-18.499-18.499v-3.057c0-15.322-12.421-27.743-27.743-27.743h-1.718" fill="#9d6b6b"/>
<path class="hair darker" d="m308.834 115.282c-2.38 1.133-5.037 1.772-7.86 1.772-5.099 0-9.725-2.071-13.073-5.419s-5.419-7.974-5.419-13.083v-3.06c0-13.279-9.333-24.374-21.788-27.094l13.186 1.121c13.041 1.108 23.67 11.503 24.319 24.575.023.463.035.929.035 1.398v3.06c0 5.11 2.071 9.735 5.419 13.083 1.493 1.494 3.244 2.741 5.181 3.647z" fill="#8b5e5e"/>
<g>
<g>
<circle cx="333.012" cy="460.032" fill="#eca900" r="24.551"/>
<path d="m343.24 482.366c-3.111 1.432-6.573 2.225-10.219 2.225-13.567 0-24.56-10.992-24.56-24.56 0-13.557 10.992-24.549 24.56-24.549 3.647 0 7.108.793 10.219 2.225-8.458 3.863-14.34 12.414-14.34 22.324 0 9.921 5.883 18.461 14.34 22.335z" fill="#e7a52e"/>
</g>
<g>
<circle cx="178.98" cy="460.032" fill="#eca900" r="24.551"/>
<path d="m189.208 482.366c-3.111 1.432-6.573 2.225-10.219 2.225-13.567 0-24.56-10.992-24.56-24.56 0-13.557 10.992-24.549 24.56-24.549 3.647 0 7.108.793 10.219 2.225-8.458 3.863-14.34 12.414-14.34 22.324 0 9.921 5.882 18.461 14.34 22.335z" fill="#e7a52e"/>
</g>
</g>
<path d="m288.035 384.979v25.353c-7.263 1.473-14.773 2.246-22.468 2.246h-19.13c-7.695 0-15.205-.773-22.468-2.246v-25.353z" fill="#ffcbbe"/>

</g>

</svg>
