<?xml version="1.0" encoding="UTF-8" standalone="no"?>
<!-- Created with Inkscape (http://www.inkscape.org/) -->

<svg
   xmlns:dc="http://purl.org/dc/elements/1.1/"
   xmlns:cc="http://creativecommons.org/ns#"
   xmlns:rdf="http://www.w3.org/1999/02/22-rdf-syntax-ns#"
   xmlns:svg="http://www.w3.org/2000/svg"
   xmlns="http://www.w3.org/2000/svg"
   xmlns:sodipodi="http://sodipodi.sourceforge.net/DTD/sodipodi-0.dtd"
   xmlns:inkscape="http://www.inkscape.org/namespaces/inkscape"
   version="1.1"
   id="svg898"
   width="371.07999"
   height="511.99799">
  <metadata
     id="metadata904">
    <rdf:RDF>
      <cc:Work
         rdf:about="">
        <dc:format>image/svg+xml</dc:format>
        <dc:type
           rdf:resource="http://purl.org/dc/dcmitype/StillImage" />
      </cc:Work>
    </rdf:RDF>
  </metadata>
  <defs
     id="defs902" />
  <sodipodi:namedview
     pagecolor="#ffffff"
     bordercolor="#666666"
     borderopacity="1"
     objecttolerance="10"
     gridtolerance="10"
     guidetolerance="10"
     inkscape:pageopacity="0"
     inkscape:pageshadow="2"
     inkscape:window-width="640"
     inkscape:window-height="480"
     id="namedview900" />
  <inkscape:clipboard
     style="font-variant-east_asian:normal;opacity:1;vector-effect:none;fill:#000000;fill-opacity:1;stroke-width:0.1;stroke-linecap:butt;stroke-linejoin:miter;stroke-miterlimit:4;stroke-dasharray:none;stroke-dashoffset:0;stroke-opacity:1"
     min="70.46,0.002"
     max="441.54,512" />
  <g
     inkscape:label="#g48"
     style="stroke-width:0.1;stroke-miterlimit:4;stroke-dasharray:none"
     transform="translate(-70.46)">
    <path
       style="fill:white;stroke-width:0.1;stroke-miterlimit:4;stroke-dasharray:none"
       id="path2"
       d="m 383.35,504.5 h -254.7 c 13.04,-22.05 31.64,-40.41 53.87,-53.16 h 146.96 c 22.23,12.75 40.83,31.11 53.87,53.16 z"
       inkscape:connector-curvature="0" />
    <path
       style="stroke-width:0.1;stroke-miterlimit:4;stroke-dasharray:none"
       id="hair"
       d="m 319.176,7.5 c -24.581,0 -46.868,9.809 -63.172,25.721 C 239.699,17.309 217.413,7.5 192.831,7.5 142.87,7.5 102.369,48.001 102.369,97.962 v 194.963 c 0,49.961 40.501,90.462 90.462,90.462 24.581,0 46.868,-9.809 63.172,-25.721 16.304,15.912 38.591,25.721 63.172,25.721 49.961,0 90.462,-40.501 90.462,-90.462 V 97.962 C 409.638,48.001 369.137,7.5 319.176,7.5 Z"
       inkscape:connector-curvature="0" />
    <g
       inkscape:label="#g883"
       id="skin">
      <path
         d="m 329.475,451.337 -2.72,2.72 c -35.21,30.08 -84.8,34.17 -123.92,12.26 -6.16,-3.43 -12.06,-7.53 -17.6,-12.26 l -2.72,-2.72 c 13.01,-7.47 27.27,-13.02 42.39,-16.25 v -53.89 h 62.19 v 53.89 c 15.11,3.23 29.37,8.78 42.38,16.25 z"
         id="path6"
         style="fill:inherit;stroke-width:0.1;stroke-miterlimit:4;stroke-dasharray:none"
         inkscape:connector-curvature="0" />
      <g
         id="g20"
         style="fill:inherit;stroke-width:0.1;stroke-miterlimit:4;stroke-dasharray:none">
        <circle
           cx="117.778"
           cy="271.20001"
           r="39.816002"
           id="circle16"
           style="stroke-width:0.1;stroke-miterlimit:4;stroke-dasharray:none" />
        <circle
           cx="394.229"
           cy="271.20001"
           r="39.816002"
           id="circle18"
           style="stroke-width:0.1;stroke-miterlimit:4;stroke-dasharray:none" />
      </g>
      <path
         d="M 374.289,164.743 258.745,114.609 137.718,164.743 v 109.645 c 0,60.198 48.8,108.998 108.998,108.998 h 18.576 c 60.198,0 108.998,-48.8 108.998,-108.998 V 164.743 Z"
         id="path22"
         style="fill:inherit;stroke-width:0.1;stroke-miterlimit:4;stroke-dasharray:none"
         inkscape:connector-curvature="0" />
    </g>
    <path
       sodipodi:nodetypes="ccccccsssc"
       inkscape:connector-curvature="0"
       style="fill:#ffc250;stroke-width:0.1;stroke-miterlimit:4;stroke-dasharray:none"
       id="path26"
       d="m 374.29,114.61 v 50.13 C 313.77,145.08 249.58,140.89 187.5,152.19 c -16.79,3.05 -33.42,7.23 -49.78,12.55 v -50.13 c 16.36,-5.32 32.99,-9.5 49.78,-12.55 35.77158,-6.511258 58.54778,-10.721983 94.61469,-6.950882 1.12861,0.118007 10.05944,25.170972 11.20933,25.450322 19.4032,4.71368 37.80641,21.73067 56.86698,-10.42743 3.67672,-6.20319 17.51699,2.33982 24.099,4.47799 z" />
    <g
       style="stroke-width:0.1;stroke-miterlimit:4;stroke-dasharray:none"
       id="g46">
      <g
         style="stroke-width:0.1;stroke-miterlimit:4;stroke-dasharray:none"
         id="g38">
        <circle
           style="fill:#ffc250;stroke-width:0.1;stroke-miterlimit:4;stroke-dasharray:none"
           id="circle34"
           r="23.830999"
           cy="454.05399"
           cx="330.76001" />
      </g>
      <g
         style="stroke-width:0.1;stroke-miterlimit:4;stroke-dasharray:none"
         id="g44">
        <circle
           style="fill:#ffc250;stroke-width:0.1;stroke-miterlimit:4;stroke-dasharray:none"
           id="circle40"
           r="23.830999"
           cy="454.05399"
           cx="181.24001" />
      </g>
    </g>
  </g>
  <path
     style="stroke-width:0.1;stroke-miterlimit:4;stroke-dasharray:none"
     sodipodi:nodetypes="scsscscscscscccsscccsscccsscccscccccscccsccsccsccsscsccccssssscccssssssssccccscccssccccsccccsscscccssssscccscscsccssssscsccsccscsscsccsssccccscsccccscccsscccccccccsss"
     inkscape:connector-curvature="0"
     id="path50"
     d="m 371.08,271.197 c 0,-17.779 -9.862,-33.292 -24.397,-41.376 V 97.96 C 346.683,43.945 302.738,0 248.723,0 225.385,0 203.21,8.151 185.544,23.091 167.887,8.152 145.714,0 122.373,0 96.207,0 71.605,10.191 53.1,28.697 34.6,47.196 24.413,71.794 24.413,97.96 V 229.812 C 9.869,237.893 0,253.411 0,271.196 c 0,18.68 10.883,34.862 26.64,42.55 9.689,44.94 49.309,77.143 95.732,77.143 8.345,0 16.596,-1.049 24.577,-3.117 v 41.375 c -4.358,1.115 -8.674,2.434 -12.923,3.925 -5.738,-6.352 -14.034,-10.351 -23.247,-10.351 -17.276,0 -31.332,14.055 -31.332,31.331 0,3.671 0.64,7.194 1.805,10.47 -11.619,10.523 -21.536,22.66 -29.519,36.158 -1.371,2.318 -1.394,5.194 -0.059,7.534 1.334,2.34 3.821,3.784 6.515,3.784 h 254.7 c 2.693,0 5.18,-1.444 6.515,-3.784 1.334,-2.34 1.312,-5.215 -0.059,-7.534 -7.983,-13.498 -17.9,-25.635 -29.519,-36.158 1.165,-3.276 1.805,-6.799 1.805,-10.47 0,-17.276 -14.055,-31.331 -31.332,-31.331 -9.213,0 -17.509,3.999 -23.247,10.35 -4.245,-1.49 -8.558,-2.809 -12.913,-3.923 v -41.379 c 7.991,2.069 16.244,3.119 24.583,3.119 20.531,0 40.198,-6.292 56.877,-18.195 3.372,-2.406 4.154,-7.09 1.748,-10.462 -2.405,-3.371 -7.089,-4.154 -10.461,-1.748 -13.211,9.429 -28.64,14.697 -44.813,15.337 23.94,-13.563 42.635,-35.351 52.206,-61.502 6.075,2.755 12.671,4.192 19.486,4.192 1.337,0 2.657,-0.07 3.967,-0.179 -2.589,8.091 -6.42,15.712 -11.452,22.758 -2.407,3.371 -1.626,8.055 1.745,10.462 1.321,0.944 2.844,1.397 4.353,1.397 2.34,0 4.646,-1.092 6.11,-3.142 7.812,-10.939 13.168,-23.058 15.97,-36.07 15.746,-7.688 26.622,-23.866 26.622,-42.539 z M 39.413,97.96 C 39.413,75.801 48.04,54.969 63.706,39.304 79.378,23.631 100.213,15 122.373,15 c 21.774,0 42.348,8.377 57.931,23.587 2.913,2.843 7.562,2.844 10.476,10e-4 C 206.373,23.377 226.952,15 248.723,15 c 45.744,0 82.96,37.216 82.96,82.96 v 126.596 c -2.577,-0.436 -5.219,-0.675 -7.918,-0.675 -4.217,0 -8.399,0.569 -12.435,1.667 l 0.003,-110.938 c 0,-3.25 -2.093,-6.13 -5.184,-7.133 -7.169,-2.328 -14.396,-4.438 -21.562,-6.315 V 81.276 c 0,-4.142 -3.358,-7.5 -7.5,-7.5 -4.142,0 -7.5,3.358 -7.5,7.5 v 34.992 c 0,5.766 -4.691,10.457 -10.457,10.457 -5.682,0 -10.368,-4.626 -10.445,-10.313 -0.04,-2.942 -1.797,-5.589 -4.492,-6.769 -2.694,-1.18 -5.832,-0.675 -8.02,1.292 -1.93,1.734 -4.406,2.69 -6.971,2.69 -5.766,0 -10.458,-4.691 -10.458,-10.457 v -2.967 c 0,-18.985 -15.445,-34.43 -34.431,-34.43 h -1.667 c -4.142,0 -7.5,3.358 -7.5,7.5 0,4.142 3.358,7.5 7.5,7.5 h 1.667 c 6.391,0 12.054,3.115 15.597,7.892 -45.843,-1.713 -91.19,4.59 -134.964,18.815 -3.09,1.004 -5.182,3.884 -5.182,7.133 l -0.005,110.938 c -4.038,-1.098 -8.222,-1.667 -12.442,-1.667 -2.694,0 -5.331,0.238 -7.903,0.673 V 97.96 Z M 15,271.197 c 0,-17.819 14.497,-32.316 32.316,-32.316 4.287,0 8.52,0.852 12.442,2.485 v 16.936 c -3.029,-1.241 -6.375,-2.065 -10.019,-2.431 -7.486,-0.752 -13.614,0.677 -14.287,0.843 -4.009,0.984 -6.452,5.019 -5.487,9.032 0.965,4.013 5.009,6.488 9.028,5.543 0.044,-0.01 4.5,-1.039 9.605,-0.455 5.117,0.585 8.794,2.479 11.187,5.767 0.148,7.916 1.091,15.641 2.75,23.1 -4.651,2.497 -9.829,3.811 -15.22,3.811 C 29.497,303.512 15,289.015 15,271.197 Z m 28.367,47.138 c 1.304,0.108 2.618,0.177 3.949,0.177 6.825,0 13.424,-1.437 19.493,-4.191 9.569,26.146 28.259,47.93 52.193,61.494 -35.146,-1.4 -65.148,-24.585 -75.635,-57.48 z m 67.413,119.388 c 9.005,0 16.332,7.326 16.332,16.331 0,9.005 -7.326,16.332 -16.332,16.332 -9.006,0 -16.332,-7.326 -16.332,-16.332 0,-9.006 7.326,-16.331 16.332,-16.331 z M 298.985,497 H 72.095 c 5.209,-7.141 11.087,-13.762 17.568,-19.822 5.574,5.095 12.988,8.208 21.117,8.208 9.009,0 17.137,-3.828 22.858,-9.936 16.281,8.108 34.089,12.173 51.901,12.173 17.813,0 35.621,-4.066 51.902,-12.173 5.721,6.108 13.849,9.936 22.858,9.936 8.129,0 15.543,-3.113 21.117,-8.208 6.482,6.06 12.36,12.681 17.569,19.822 z M 260.3,437.723 c 9.005,0 16.332,7.326 16.332,16.331 0,9.005 -7.326,16.332 -16.332,16.332 -9.006,0 -16.332,-7.326 -16.332,-16.332 0,-9.006 7.326,-16.331 16.332,-16.331 z m -30.4,8.752 c -0.606,2.428 -0.932,4.966 -0.932,7.579 0,2.876 0.397,5.659 1.126,8.306 -28.006,13.693 -61.103,13.692 -89.109,0 0.729,-2.647 1.126,-5.43 1.126,-8.306 0,-2.613 -0.326,-5.151 -0.932,-7.579 4.874,-1.621 9.84,-2.982 14.839,-4.051 3.459,-0.74 5.932,-3.796 5.932,-7.334 v -45.083 c 4.69,0.577 9.463,0.879 14.306,0.879 h 18.576 c 4.844,0 9.618,-0.302 14.308,-0.879 v 45.083 c 0,3.537 2.471,6.593 5.93,7.334 4.997,1.07 9.959,2.431 14.83,4.051 z m -35.068,-70.589 h -18.576 c -55.966,0 -101.498,-45.532 -101.498,-101.498 v -104.13 c 41.61009,-6.72911 41.9093,-28.0345 0.005,-15.698 V 120.1 c 41.889,-12.955 85.222,-18.406 128.997,-16.261 0.358,13.727 11.628,24.786 25.44,24.786 2.445,0 4.854,-0.353 7.162,-1.032 4.193,8.36 12.858,14.132 22.767,14.132 13.897,0 25.222,-11.195 25.446,-25.04 3.913,1.07 7.838,2.206 11.757,3.416 v 34.462 c -53.426,-15.785 -110.424,-20.01 -165.533,-12.199 -4.101,0.581 -6.955,4.377 -6.373,8.478 0.582,4.101 4.373,6.955 8.479,6.373 54.451,-7.718 110.832,-3.213 163.424,13.016 v 104.157 c 10e-4,55.967 -45.531,101.498 -101.497,101.498 z m 128.933,-72.374 c -5.378,0 -10.555,-1.314 -15.213,-3.811 1.659,-7.459 2.601,-15.184 2.75,-23.1 2.394,-3.288 6.07,-5.182 11.187,-5.767 5.043,-0.577 9.457,0.421 9.602,0.454 4.015,0.967 8.056,-1.491 9.041,-5.504 0.987,-4.023 -1.473,-8.084 -5.496,-9.072 -0.674,-0.166 -6.801,-1.594 -14.287,-0.843 -3.644,0.366 -6.989,1.19 -10.019,2.431 v -16.935 c 3.921,-1.633 8.152,-2.486 12.435,-2.486 17.819,0 32.315,14.497 32.315,32.316 0,17.819 -14.497,32.317 -32.315,32.317 z" />
  <g
     inkscape:label="#g896"
     id="eyes"
     style="stroke-width:0.1;stroke-miterlimit:4;stroke-dasharray:none"
     transform="translate(-70.46)">
    <path
       d="m 199.823,231.231 c -7.272,0 -13.189,8.106 -13.189,18.07 0,9.964 5.917,18.07 13.189,18.07 7.272,0 13.189,-8.106 13.189,-18.07 0,-9.964 -5.917,-18.07 -13.189,-18.07 z"
       id="path52"
       style="stroke-width:0.1;stroke-miterlimit:4;stroke-dasharray:none"
       inkscape:connector-curvature="0" />
    <path
       d="m 312.185,231.231 c -7.272,0 -13.189,8.106 -13.189,18.07 0,9.964 5.917,18.07 13.189,18.07 7.272,0 13.189,-8.106 13.189,-18.07 0,-9.964 -5.917,-18.07 -13.189,-18.07 z"
       id="path54"
       style="stroke-width:0.1;stroke-miterlimit:4;stroke-dasharray:none"
       inkscape:connector-curvature="0" />
  </g>
  <path
     style="stroke-width:0.1;stroke-miterlimit:4;stroke-dasharray:none"
     id="path56"
     d="m 108.661,199.662 c -2.929,2.929 -2.929,7.677 0,10.606 2.929,2.929 7.678,2.929 10.606,0 5.997,-5.997 15.753,-5.996 21.749,0 1.464,1.465 3.384,2.197 5.303,2.197 1.919,0 3.839,-0.732 5.303,-2.197 2.929,-2.929 2.929,-7.677 0,-10.606 -11.844,-11.845 -31.116,-11.845 -42.961,0 z"
     inkscape:connector-curvature="0" />
  <path
     style="stroke-width:0.1;stroke-miterlimit:4;stroke-dasharray:none"
     id="path58"
     d="m 242.082,190.764 c -8.114,0 -15.743,3.16 -21.48,8.898 -2.929,2.929 -2.929,7.677 0,10.606 1.464,1.465 3.384,2.197 5.303,2.197 1.919,0 3.839,-0.732 5.303,-2.197 2.905,-2.905 6.767,-4.504 10.874,-4.504 4.108,0 7.969,1.6 10.874,4.504 2.929,2.929 7.678,2.928 10.606,0 2.929,-2.929 2.929,-7.678 0,-10.607 -5.737,-5.737 -13.366,-8.897 -21.48,-8.897 z"
     inkscape:connector-curvature="0" />
  <path
     style="stroke-width:0.1;stroke-miterlimit:4;stroke-dasharray:none"
     id="path60"
     d="m 210.847,282.967 c -3.971,-1.179 -8.146,1.084 -9.325,5.055 -2.078,7 -8.649,11.888 -15.979,11.888 -7.321,0 -13.892,-4.892 -15.98,-11.896 -1.184,-3.97 -5.363,-6.229 -9.331,-5.044 -3.969,1.183 -6.228,5.361 -5.044,9.33 3.969,13.313 16.452,22.611 30.355,22.611 13.92,0 26.404,-9.301 30.358,-22.619 1.18,-3.971 -1.084,-8.146 -5.054,-9.325 z"
     inkscape:connector-curvature="0" />
</svg>
