<?xml version="1.0" encoding="iso-8859-1"?>
<!-- Generator: Adobe Illustrator 19.0.0, SVG Export Plug-In . SVG Version: 6.00 Build 0)  -->
<svg version="1.1" id="Layer_1" xmlns="http://www.w3.org/2000/svg" xmlns:xlink="http://www.w3.org/1999/xlink" x="0px" y="0px"
	 viewBox="0 0 512 512" style="enable-background:new 0 0 512 512;" xml:space="preserve">
<path style="fill:#E2C688;" d="M114.118,47.883c28.661,18.264-8.417,94.413-40.008,76.416L47.139,79.591
	c-12.654-23.299,7.81-50.677,33.741-45.235C100.806,38.542,114.118,47.883,114.118,47.883z"/>
<path style="fill:#FFE8B0;" d="M431.121,34.356c25.942-5.442,46.395,21.936,33.753,45.235l-26.971,44.709
	c-52.324,4.043-82.651-35.854-40.785-77.72C397.117,46.579,411.194,38.542,431.121,34.356z"/>
<path style="fill:#F7B239;" d="M492.359,289.558c6.818,35.87-11.231,71.859-43.967,88.03
	C383.278,409.762,277.858,467.256,256.006,512c-21.852-44.744-127.272-102.239-192.397-134.413
	c-32.736-16.171-50.784-52.16-43.967-88.03c11.614-61.047,32.473-117.68,54.468-165.259c13.539-29.267,27.509-55.102,40.008-76.416
	c0.526-0.885,1.041-1.77,1.555-2.643C137.609,8.186,182.245-8.774,223.222,4.466l32.784,10.585l32.772-10.585
	c40.977-13.24,85.626,3.72,107.549,40.774c0.263,0.443,0.526,0.885,0.789,1.34c12.702,21.565,26.971,47.854,40.785,77.72
	C459.898,171.878,480.757,228.511,492.359,289.558z"/>
<g>
	<polygon style="fill:#E09B2D;" points="256.005,15.051 256,15.05 256.004,15.051 	"/>
	<path style="fill:#E09B2D;" d="M135.585,377.588c-20.49-16.171-31.785-52.16-27.519-88.03
		c7.268-61.047,20.325-117.68,34.091-165.259c8.474-29.267,17.217-55.102,25.041-76.416c0.329-0.885,0.652-1.77,0.974-2.643
		c9.021-24.345,24.173-40.013,40.781-44.145c-36.691-5.675-73.871,11.36-93.279,44.145c-0.514,0.873-1.029,1.758-1.555,2.643
		c-12.499,21.314-26.469,47.148-40.008,76.416c-21.995,47.579-42.855,104.212-54.468,165.259
		c-6.818,35.87,11.231,71.859,43.967,88.03C128.728,409.759,234.135,467.245,256,511.988
		C242.315,467.246,176.343,409.759,135.585,377.588z"/>
</g>
<path style="fill:#FFE8B0;" d="M386.998,188.766l-20.931-46.921c-3.863-8.647-11.327-15.166-20.429-17.821
	c-2.99-0.873-6.028-1.292-9.03-1.292c-10.418,0-20.429,5.059-26.552,13.946l-4.667,6.768c-7.944,11.519-21.042,18.397-35.035,18.397
	h-11.297h-11.286c-13.993,0-27.091-6.879-35.035-18.397l-4.667-6.768c-7.894-11.446-22.235-16.553-35.583-12.654
	c-4.557,1.328-8.695,3.624-12.176,6.662c-3.492,3.038-6.327,6.841-8.253,11.159l-20.931,46.921
	c-6.651,14.908-6.069,31.526,0.66,45.509c5.755,11.959,20.497,16.455,31.923,9.702l17.364-10.263l-4.988,26.086
	c-5.43,28.335,4.629,57.423,26.397,76.356c0,7.882,2.057,15.274,5.657,21.684c7.595,13.527,22.079,22.653,38.692,22.653h24.459
	c16.613,0,31.097-9.126,38.692-22.653c3.6-6.411,5.657-13.802,5.657-21.684c17.869-15.537,27.844-37.927,27.844-61.118
	c0-5.059-0.478-10.155-1.447-15.238l-4.999-26.086l17.379,10.268c11.246,6.644,25.905,2.479,31.686-9.235
	c3.673-7.444,5.596-15.656,5.596-23.974C391.699,203.37,390.168,195.871,386.998,188.766z"/>
<path style="fill:#4D4D4D;" d="M277.571,255.662c9.257,0,13.791,11.291,7.105,17.702l-25.62,24.567l-25.619-24.567
	c-6.686-6.411-2.141-17.702,7.117-17.702L277.571,255.662L277.571,255.662z"/>
<path style="fill:#E2C688;" d="M315.641,336.156c0,7.882-2.057,4.653-5.657,11.064l-37.164-17.351
	c-8.724-4.073-18.804-4.073-27.527,0.001l-37.153,17.35c-3.6-6.411-5.657-3.182-5.657-11.064l56.573-38.226L315.641,336.156z"/>
<g>
	<path style="fill:#4D4D4D;" d="M204.009,213.635c-1.194,0-2.409-0.24-3.573-0.746l-15.263-6.638
		c-4.544-1.976-6.624-7.261-4.649-11.804c1.975-4.543,7.259-6.626,11.804-4.648l15.263,6.638c4.544,1.976,6.624,7.261,4.649,11.804
		C210.771,211.618,207.473,213.635,204.009,213.635z"/>
	<path style="fill:#4D4D4D;" d="M311.053,213.635c-3.464,0-6.761-2.017-8.231-5.395c-1.975-4.543,0.105-9.828,4.649-11.804
		l15.263-6.638c4.543-1.977,9.828,0.105,11.804,4.648c1.975,4.543-0.105,9.828-4.649,11.804l-15.263,6.638
		C313.461,213.396,312.247,213.635,311.053,213.635z"/>
</g>
<g>
</g>
<g>
</g>
<g>
</g>
<g>
</g>
<g>
</g>
<g>
</g>
<g>
</g>
<g>
</g>
<g>
</g>
<g>
</g>
<g>
</g>
<g>
</g>
<g>
</g>
<g>
</g>
<g>
</g>
</svg>
