<svg id="Capa_1" enable-background="new 0 0 512 512" height="512" viewBox="0 0 512 512" width="512" xmlns="http://www.w3.org/2000/svg"><g><g><path d="m432.048 512h-352.088c28.585-48.312 76.468-83.843 133.056-95.959v-74.485h85.964v74.485c56.587 12.116 104.483 47.647 133.068 95.959z" fill="#ffddce"/><g fill="#ffcbbe"><path d="m298.979 364.661v32.647c-9.745 1.982-19.838 3.022-30.166 3.022h-25.619c-10.342 0-20.434-1.04-30.179-3.022v-32.647z"/><path d="m237.84 341.544v74.502c-23.912 12.102-44.143 47.644-56.217 95.955h-101.665c28.581-48.311 76.475-83.853 133.053-95.955v-74.502z"/></g></g><g fill="#ffcbbe"><circle cx="114.437" cy="267.919" r="40.777"/><circle cx="397.563" cy="267.919" r="40.777"/></g><path d="m134.865 278.912c-2.714 0-5.347-1.432-6.76-3.972-2.372-4.266-6.415-6.67-12.36-7.351-5.223-.597-9.779.454-9.824.465-4.138.974-8.307-1.576-9.301-5.711s1.522-8.291 5.653-9.304c.69-.17 6.976-1.634 14.647-.864 11.229 1.128 19.767 6.403 24.69 15.255 2.073 3.729.732 8.434-2.997 10.508-1.189.66-2.477.974-3.748.974z" fill="#eaac9d"/><path d="m377.136 278.912c-1.271 0-2.559-.314-3.748-.975-3.729-2.074-5.07-6.779-2.997-10.508 4.924-8.852 13.461-14.127 24.689-15.255 7.673-.772 13.956.694 14.648.864 4.144 1.017 6.679 5.201 5.662 9.345-1.015 4.134-5.181 6.665-9.315 5.67-.163-.038-4.673-1.053-9.819-.464-5.945.681-9.988 3.085-12.36 7.351-1.413 2.539-4.046 3.972-6.76 3.972z" fill="#eaac9d"/><path d="m256.662 65.286h-1.324c-66.54 0-120.48 53.941-120.48 120.48v85.418c0 61.652 49.978 111.63 111.63 111.63h19.024c61.652 0 111.63-49.979 111.63-111.63v-85.418c0-66.539-53.941-120.48-120.48-120.48z" fill="#ffddce"/><path d="m290.881 379.907c-8.153 1.904-16.645 2.903-25.364 2.903h-19.023c-61.66 0-111.636-49.977-111.636-111.626v-85.418c0-66.539 53.939-120.479 120.479-120.479h1.328c11.889 0 23.367 1.719 34.217 4.941-49.873 14.73-86.262 60.888-86.262 115.538v85.418c-.001 52.921 36.83 97.246 86.261 108.723z" fill="#ffcbbe"/><path d="m256 205.543c-7.449 0-13.508 8.302-13.508 18.508 0 10.205 6.059 18.507 13.508 18.507s13.509-8.302 13.509-18.507c0-10.206-6.061-18.508-13.509-18.508z" fill="#2b4d66"/><path d="m289.136 209.967c-1.978 0-3.955-.754-5.464-2.263-2.966-2.966-6.909-4.6-11.104-4.6s-8.139 1.633-11.106 4.6c-1.449 1.449-3.413 2.263-5.463 2.263-2.049 0-4.015-.814-5.464-2.263-2.966-2.966-6.909-4.6-11.105-4.6-4.194 0-8.138 1.633-11.104 4.6-3.018 3.017-7.91 3.018-10.927 0-3.018-3.017-3.018-7.909-.001-10.927 5.885-5.885 13.709-9.126 22.031-9.126 5.954 0 11.653 1.658 16.568 4.757 4.917-3.099 10.615-4.757 16.568-4.757 8.322 0 16.146 3.241 22.031 9.126 3.017 3.018 3.017 7.909-.001 10.927-1.505 1.508-3.483 2.263-5.459 2.263z" fill="#eaac9d"/><path d="m256 .007-40.825 70.712c-17.359 30.067 4.34 67.651 39.059 67.651h3.534c34.719 0 56.418-37.584 39.059-67.651z" fill="#ede6e3"/><path d="m255.444 138.37h-1.215c-34.721 0-56.421-37.583-39.055-67.651l40.826-70.719-12.806 70.719c-5.435 30.068 1.359 67.651 12.25 67.651z" fill="#d8cec9"/><g fill="#eaac9d"><g><path d="m198.911 149.453c-4.268 0-7.726-3.459-7.726-7.726v-.641c0-4.267 3.459-7.726 7.726-7.726s7.726 3.459 7.726 7.726v.641c.001 4.267-3.458 7.726-7.726 7.726z"/><path d="m178.036 161.032c-4.268 0-7.726-3.459-7.726-7.726v-.641c0-4.267 3.459-7.726 7.726-7.726 4.268 0 7.726 3.459 7.726 7.726v.641c0 4.267-3.458 7.726-7.726 7.726z"/><path d="m178.036 137.735c-4.268 0-7.726-3.459-7.726-7.726v-.641c0-4.267 3.459-7.726 7.726-7.726 4.268 0 7.726 3.459 7.726 7.726v.641c0 4.267-3.458 7.726-7.726 7.726z"/></g><g><path d="m313.088 149.453c-4.268 0-7.726-3.459-7.726-7.726v-.641c0-4.267 3.459-7.726 7.726-7.726s7.726 3.459 7.726 7.726v.641c.001 4.267-3.458 7.726-7.726 7.726z"/><path d="m333.964 161.032c-4.268 0-7.726-3.459-7.726-7.726v-.641c0-4.267 3.459-7.726 7.726-7.726s7.726 3.459 7.726 7.726v.641c0 4.267-3.459 7.726-7.726 7.726z"/><path d="m333.964 137.735c-4.268 0-7.726-3.459-7.726-7.726v-.641c0-4.267 3.459-7.726 7.726-7.726s7.726 3.459 7.726 7.726v.641c0 4.267-3.459 7.726-7.726 7.726z"/></g></g><path d="m288.651 280.302c-1.021 0-2.058-.204-3.055-.633-3.919-1.69-5.725-6.236-4.035-10.154l4.653-10.791c1.689-3.918 6.235-5.724 10.154-4.036 3.919 1.69 5.725 6.236 4.035 10.154l-4.653 10.791c-1.26 2.922-4.107 4.669-7.099 4.669z" fill="#fff"/><path d="m223.35 280.302c-2.992 0-5.839-1.747-7.099-4.669l-4.654-10.791c-1.69-3.919.117-8.465 4.035-10.154 3.919-1.69 8.465.117 10.154 4.035l4.654 10.791c1.69 3.919-.117 8.465-4.035 10.154-.997.431-2.034.634-3.055.634z" fill="#fff"/><path d="m207.54 309.578c-.731 0-1.474-.105-2.21-.324-4.09-1.219-6.417-5.523-5.197-9.612 7.305-24.499 30.279-41.61 55.867-41.61 25.619 0 48.594 17.114 55.87 41.618 1.215 4.091-1.117 8.392-5.207 9.606-4.089 1.216-8.39-1.116-9.606-5.207-5.344-17.996-22.227-30.564-41.057-30.564-18.808 0-35.691 12.572-41.058 30.572-1.001 3.353-4.074 5.521-7.402 5.521z" fill="#eaa598"/></g></svg>