<svg id="Capa_1" enable-background="new 0 0 512 512" height="512" viewBox="0 0 512 512" width="512" xmlns="http://www.w3.org/2000/svg"><g><g><path clip-rule="evenodd" d="m381.552 227.21-121.088-30.617-130.016 30.617v40.139l125.537 43.937 125.567-43.937z" fill="#ffd772" fill-rule="evenodd"/></g><g><path clip-rule="evenodd" d="m193.224 512 26.72-122.326-26.72-122.325h-62.776v244.651z" fill="#eff6f7" fill-rule="evenodd"/></g><g><path clip-rule="evenodd" d="m256 267.349-31.388 122.325 31.388 122.326h62.776l24.789-122.326-24.789-122.325z" fill="#eff6f7" fill-rule="evenodd"/></g><g><path clip-rule="evenodd" d="m256 111.686h-62.776-52.881-5.021c-6.254 18.411-18.351 33.268-36.233 40.814v43.35c0 17.265 14.094 31.36 31.359 31.36h251.104c17.236 0 31.329-14.094 31.329-31.36v-43.35c-17.852-7.546-29.979-22.404-36.233-40.814h-15.826-42.046z" fill="#af857f" fill-rule="evenodd"/></g><g><path clip-rule="evenodd" d="m75.423 50.475 180.533 41.726 180.591-41.726v-32.064c0-10.101-8.251-18.352-18.322-18.411h-.117-324.245-.117c-10.072.059-18.323 8.31-18.323 18.411z" fill="#af857f" fill-rule="evenodd"/></g><g><path clip-rule="evenodd" d="m436.547 50.475h-361.124-4.61c-37.642 0-68.12 30.508-68.12 68.122s34.324 68.122 68.12 68.122c10.629 0 20.054-1.909 28.276-5.373 17.881-7.546 29.979-22.404 36.233-40.814h5.021 52.881 62.776 62.776 42.046 15.826c6.254 18.411 18.381 33.268 36.233 40.814 8.221 3.465 17.647 5.373 28.276 5.373 33.796 0 68.149-30.508 68.149-68.122s-30.507-68.122-68.149-68.122z" fill="#ffd772" fill-rule="evenodd"/></g><g><path clip-rule="evenodd" d="m193.224 267.349h62.776v244.651h-62.776z" fill="#cbe4e7" fill-rule="evenodd"/></g><g><path clip-rule="evenodd" d="m318.776 267.349h62.776v244.651h-62.776z" fill="#cbe4e7" fill-rule="evenodd"/></g><g><path clip-rule="evenodd" d="m464.148 90.819c4.169 8.809 6.489 19.321 6.489 29.069 0 9.719-1.997 17.735-5.491 25.663-7.517 16.972-34.823 29.245-51.354 36.146 7.986 3.23 17.118 5.021 27.365 5.021 33.796 0 68.149-30.508 68.149-68.122s-30.507-68.122-68.149-68.122h-4.61-46.862c27.219.001 63.54 17.237 74.463 40.345z" fill="#fbba58" fill-rule="evenodd"/></g><g><path clip-rule="evenodd" d="m352.396 18.411v32.064h37.29 46.862v-32.064c0-10.101-8.251-18.352-18.322-18.411h-.117-84.034c10.07.059 18.321 8.31 18.321 18.411z" fill="#98756e" fill-rule="evenodd"/></g><g><path clip-rule="evenodd" d="m193.224 171.597h62.776 62.776 36.673 3.465c4.903 14.417 21.346 33.444 47.772 42.928 3.905-5.227 6.195-11.686 6.195-18.675v-14.505c-17.852-7.546-29.979-22.404-36.233-40.814h-5.021-52.852-62.775-62.776-52.881-5.021c-6.254 18.411-18.351 33.268-36.233 40.814v14.505c0 6.988 2.32 13.448 6.195 18.675 26.426-9.484 42.869-28.511 47.772-42.928h3.465z" fill="#98756e" fill-rule="evenodd"/></g><g><path clip-rule="evenodd" d="m350.164 267.349h31.388v244.651h-31.388z" fill="#a7d2d7" fill-rule="evenodd"/></g><g><path clip-rule="evenodd" d="m350.164 227.21h31.388v40.139h-31.388z" fill="#fbba58" fill-rule="evenodd"/></g><g><path d="m69.446 153.858c-9.124 0-18.169-3.729-25.026-10.503-10.713-10.578-13.81-25.816-8.083-39.767 6.179-15.051 20.763-24.401 38.06-24.401h363.179c17.298 0 31.881 9.35 38.06 24.401 5.726 13.95 2.629 29.188-8.085 39.768-8.3 8.198-19.809 11.935-30.776 10.001-11.287-1.992-20.667-9.774-26.413-21.911-1.826-3.857-.18-8.464 3.677-10.29 3.854-1.827 8.464-.18 10.289 3.677 3.595 7.592 8.828 12.193 15.133 13.306 5.958 1.051 12.559-1.162 17.232-5.777 6.261-6.182 7.997-14.744 4.647-22.904-2.94-7.163-10.727-14.817-23.765-14.817h-363.179c-13.037 0-20.824 7.654-23.765 14.817-3.35 8.16-1.613 16.722 4.647 22.904 4.673 4.615 11.276 6.83 17.232 5.778 6.305-1.113 11.539-5.714 15.133-13.306 1.826-3.857 6.434-5.502 10.29-3.677 3.857 1.826 5.503 6.433 3.677 10.29-5.747 12.137-15.127 19.919-26.414 21.911-1.907.335-3.831.5-5.75.5z" fill="#af857f"/></g></g></svg>