<svg height="512pt" viewBox="0 0 512 512" width="512pt" xmlns="http://www.w3.org/2000/svg"><path d="m437.019531 74.980469c-48.351562-48.351563-112.640625-74.980469-181.019531-74.980469s-132.667969 26.628906-181.019531 74.980469c-48.351563 48.351562-74.980469 112.640625-74.980469 181.019531s26.628906 132.667969 74.980469 181.019531c48.351562 48.351563 112.640625 74.980469 181.019531 74.980469s132.667969-26.628906 181.019531-74.980469c48.351563-48.351562 74.980469-112.640625 74.980469-181.019531s-26.628906-132.667969-74.980469-181.019531zm0 0" fill="#f8b53c"/><path d="m256 50.542969c-113.289062 0-205.457031 92.167969-205.457031 205.457031s92.167969 205.457031 205.457031 205.457031 205.457031-92.167969 205.457031-205.457031-92.167969-205.457031-205.457031-205.457031zm0 0" fill="#f9e075"/><path d="m220.125 419.253906c-.679688 0-1.371094-.078125-2.0625-.238281-6.566406-1.523437-13.109375-3.464844-19.441406-5.777344-4.710938-1.722656-7.136719-6.9375-5.417969-11.648437 1.71875-4.710938 6.933594-7.140625 11.648437-5.421875 5.640626 2.058593 11.464844 3.792969 17.316407 5.148437 4.886719 1.132813 7.929687 6.011719 6.796875 10.902344-.972656 4.195312-4.710938 7.035156-8.839844 7.035156zm118.597656-19.226562c-3.050781 0-6.035156-1.539063-7.75-4.332032-2.625-4.273437-1.289062-9.867187 2.984375-12.496093 5.113281-3.136719 10.085938-6.625 14.789063-10.363281 3.929687-3.121094 9.640625-2.46875 12.765625 1.457031 3.121093 3.929687 2.46875 9.644531-1.457031 12.765625-5.273438 4.191406-10.855469 8.101562-16.585938 11.625-1.484375.910156-3.125 1.34375-4.746094 1.34375zm-225.777344-67.203125c-3.402343 0-6.664062-1.914063-8.214843-5.191407-2.886719-6.089843-5.429688-12.417968-7.554688-18.808593-1.585937-4.757813.992188-9.902344 5.753907-11.484375 4.757812-1.585938 9.902343.992187 11.484374 5.753906 1.894532 5.691406 4.15625 11.328125 6.730469 16.753906 2.148438 4.53125.21875 9.949219-4.316406 12.101563-1.253906.59375-2.582031.875-3.882813.875zm300.175782-48.613281c-.363282 0-.730469-.023438-1.101563-.066407-4.980469-.601562-8.53125-5.128906-7.929687-10.109375.714844-5.9375 1.078125-12.003906 1.078125-18.035156 0-5.019531 4.066406-9.085938 9.085937-9.085938 5.015625 0 9.082032 4.066407 9.082032 9.085938 0 6.753906-.40625 13.554688-1.207032 20.210938-.558594 4.613281-4.476562 8-9.007812 8zm-299.132813-89.046876c-1.351562 0-2.722656-.300781-4.015625-.9375-4.5-2.222656-6.347656-7.667968-4.125-12.167968 2.976563-6.035156 6.359375-11.957032 10.050782-17.601563 2.75-4.195312 8.378906-5.371093 12.578124-2.621093 4.199219 2.746093 5.371094 8.378906 2.625 12.574218-3.292968 5.027344-6.308593 10.304688-8.960937 15.6875-1.582031 3.207032-4.804687 5.066406-8.152344 5.066406zm256.359375-39.480468c-2.390625 0-4.777344-.9375-6.566406-2.804688-4.148438-4.339844-8.609375-8.46875-13.253906-12.277344-3.878906-3.183593-4.445313-8.90625-1.261719-12.785156 3.179687-3.878906 8.902344-4.445312 12.785156-1.265625 5.203125 4.269531 10.203125 8.902344 14.859375 13.765625 3.46875 3.625 3.34375 9.378906-.28125 12.84375-1.761718 1.6875-4.023437 2.523438-6.28125 2.523438zm-147.878906-45.292969c-4.1875 0-7.953125-2.910156-8.871094-7.171875-1.058594-4.902344 2.0625-9.734375 6.964844-10.792969 6.574219-1.417969 13.3125-2.445312 20.03125-3.0625 4.996094-.453125 9.414062 3.226563 9.871094 8.222657.457031 4.996093-3.222656 9.417968-8.222656 9.871093-5.988282.550781-11.992188 1.464844-17.847657 2.730469-.644531.136719-1.289062.203125-1.925781.203125zm0 0" fill="#f8b53c"/><path d="m256 146.738281c-60.246094 0-109.261719 49.015625-109.261719 109.261719s49.015625 109.261719 109.261719 109.261719 109.257812-49.015625 109.257812-109.261719-49.011718-109.261719-109.257812-109.261719zm0 0" fill="#588fdf"/><path d="m256 198.171875c-31.886719 0-57.828125 25.941406-57.828125 57.828125s25.941406 57.828125 57.828125 57.828125 57.824219-25.941406 57.824219-57.828125-25.9375-57.828125-57.824219-57.828125zm0 0" fill="#91bcee"/><path d="m437.019531 74.980469c-48.351562-48.351563-112.640625-74.980469-181.019531-74.980469-3.882812 0-7.75.0976562-11.609375.269531 64.023437 2.835938 123.808594 29.105469 169.414063 74.710938 48.351562 48.351562 74.980468 112.640625 74.980468 181.019531s-26.628906 132.667969-74.980468 181.019531c-45.605469 45.605469-105.390626 71.875-169.414063 74.710938 3.859375.171875 7.726563.269531 11.609375.269531 68.378906 0 132.667969-26.628906 181.019531-74.980469 48.351563-48.351562 74.980469-112.640625 74.980469-181.019531s-26.628906-132.667969-74.980469-181.019531zm0 0" fill="#f8a814"/><path d="m256 50.542969c-3.894531 0-7.765625.117187-11.609375.335937 107.910156 6.039063 193.851563 95.726563 193.851563 205.121094s-85.941407 199.082031-193.851563 205.121094c3.84375.214844 7.714844.335937 11.609375.335937 113.289062 0 205.457031-92.167969 205.457031-205.457031s-92.167969-205.457031-205.457031-205.457031zm0 0" fill="#f9cd45"/><path d="m256 146.738281c-3.921875 0-7.792969.214844-11.609375.617188 54.8125 5.816406 97.652344 52.316406 97.652344 108.644531 0 56.324219-42.839844 102.828125-97.652344 108.644531 3.816406.402344 7.6875.613281 11.609375.613281 60.246094 0 109.257812-49.011718 109.257812-109.257812s-49.011718-109.261719-109.257812-109.261719zm0 0" fill="#4180db"/><path d="m256 198.171875c-3.976562 0-7.855469.40625-11.609375 1.171875 26.34375 5.390625 46.21875 28.746094 46.21875 56.65625s-19.875 51.265625-46.21875 56.652344c3.753906.769531 7.632813 1.171875 11.609375 1.171875 31.886719 0 57.824219-25.941407 57.824219-57.828125 0-31.882813-25.9375-57.824219-57.824219-57.824219zm0 0" fill="#67a3e8"/></svg>